<?xml version="1.0" encoding="UTF-8" standalone="no"?>
<!-- Created with Inkscape (http://www.inkscape.org/) -->

<svg
   width="16"
   height="16"
   viewBox="0 0 4.2333331 4.2333333"
   version="1.1"
   id="svg1"
   inkscape:version="1.3 (0e150ed6c4, 2023-07-21)"
   sodipodi:docname="Jump2D.svg"
   inkscape:export-filename="SideScroller2D.png"
   inkscape:export-xdpi="96"
   inkscape:export-ydpi="96"
   xmlns:inkscape="http://www.inkscape.org/namespaces/inkscape"
   xmlns:sodipodi="http://sodipodi.sourceforge.net/DTD/sodipodi-0.dtd"
   xmlns="http://www.w3.org/2000/svg"
   xmlns:svg="http://www.w3.org/2000/svg">
  <sodipodi:namedview
     id="namedview1"
     pagecolor="#505050"
     bordercolor="#eeeeee"
     borderopacity="1"
     inkscape:showpageshadow="0"
     inkscape:pageopacity="0"
     inkscape:pagecheckerboard="0"
     inkscape:deskcolor="#505050"
     inkscape:document-units="px"
     inkscape:zoom="16.791365"
     inkscape:cx="5.538561"
     inkscape:cy="4.5559131"
     inkscape:window-width="1920"
     inkscape:window-height="1009"
     inkscape:window-x="1912"
     inkscape:window-y="-8"
     inkscape:window-maximized="1"
     inkscape:current-layer="g9" />
  <defs
     id="defs1" />
  <g
     inkscape:label="Camada 1"
     inkscape:groupmode="layer"
     id="layer1"
     transform="translate(-31.201158,-116.91017)">
    <g
       id="g4"
       transform="translate(-0.26740696,1.0696279)" />
    <g
       id="g6"
       transform="rotate(-90,116.18433,156.3172)" />
    <g
       id="g10"
       transform="matrix(0.56376851,0,0,0.56376851,14.30131,63.147709)">
      <g
         id="g9"
         transform="matrix(0.05656697,0,0,0.05656697,28.637298,90.203103)">
        <path
           id="path1"
           style="fill:#a5b7f3;fill-opacity:1;stroke:none;stroke-width:0.956246;stroke-linecap:square"
           d="m 56.584519,178.23091 c -0.904708,0.73591 -1.7546,1.5368 -2.543403,2.3958 -0.601681,0.60661 -1.122363,1.2657 -1.569365,1.96185 -6.585771,8.84194 -6.343388,21.02272 0.588865,29.59561 8.402812,10.34902 23.604307,11.92669 33.953306,3.52391 5.583072,-4.53418 8.853296,-11.32206 8.91972,-18.51405 l 16.835748,-13.66967 c 7.03912,1.40929 14.34042,-0.38777 19.92124,-4.90329 10.34902,-8.40281 11.92673,-23.6043 3.52388,-33.95327 -6.18987,-7.58851 -16.3513,-10.6851 -25.72123,-7.8383 -2.04159,0.30939 -4.0334,1.14022 -5.75875,2.54111 l -0.37937,0.30804 c -0.72333,0.45123 -1.42232,0.94021 -2.09393,1.46526 -0.65184,0.54944 -1.27405,1.13305 -1.86404,1.74841 l -41.718744,33.87331 c -0.723305,0.45122 -1.422326,0.9402 -2.093935,1.46526 z m 51.523611,-30.77914 a 4.7373276,4.7373276 0 0 1 6.66363,0.69198 4.7373276,4.7373276 0 0 1 -0.69155,6.66327 4.7373276,4.7373276 0 0 1 -6.66371,-0.69119 4.7373276,4.7373276 0 0 1 0.69163,-6.66406 z m -43.684149,44.9688 1.503812,-1.221 c 1.197411,-0.97224 2.943716,-0.79101 3.915949,0.4064 l 2.289226,2.81944 2.819428,-2.28922 c 1.19741,-0.97224 2.943726,-0.79099 3.915956,0.40642 l 1.221009,1.5038 c 0.972235,1.19742 0.790987,2.94372 -0.406418,3.91597 l -2.819427,2.28923 2.289213,2.81941 c 0.972245,1.19742 0.791,2.94374 -0.406416,3.91597 l -1.503807,1.22102 c -1.197411,0.97222 -2.943717,0.791 -3.915972,-0.40646 l -2.289216,-2.81941 -2.819423,2.28923 c -1.197415,0.97223 -2.94372,0.791 -3.915964,-0.40644 l -1.221017,-1.50382 c -0.972223,-1.19739 -0.790984,-2.94371 0.406433,-3.91594 l 2.819432,-2.28921 -2.289218,-2.81942 c -0.972244,-1.19743 -0.790996,-2.94375 0.40642,-3.91597 z M 106.58265,162.15 a 4.7373276,4.7373276 0 0 1 6.6637,0.69119 4.7373276,4.7373276 0 0 1 -0.69163,6.66406 4.7373276,4.7373276 0 0 1 -6.66404,-0.69164 4.7373276,4.7373276 0 0 1 0.69197,-6.66361 z m 16.22372,-13.17274 a 4.7373276,4.7373276 0 0 1 6.66325,0.69153 4.7373276,4.7373276 0 0 1 -0.69119,6.66368 4.7373276,4.7373276 0 0 1 -6.66404,-0.69162 4.7373276,4.7373276 0 0 1 0.69198,-6.66359 z m -1.52546,14.69821 a 4.7373276,4.7373276 0 0 1 6.66324,0.69154 4.7373276,4.7373276 0 0 1 -0.6912,6.6637 4.7373276,4.7373276 0 0 1 -6.66403,-0.69164 4.7373276,4.7373276 0 0 1 0.69199,-6.6636 z" />
        <g
           id="g1"
           transform="rotate(-90,61.562375,188.90099)"
           inkscape:transform-center-x="-0.37817056"
           inkscape:transform-center-y="-0.17332817">
          <path
             id="path6"
             style="fill:#a5b7f3;stroke-width:0.664399;stroke-linecap:square"
             d="m 125.85934,220.80898 c 2.92003,-0.01 26.40514,-13.62573 26.40514,-15.41252 0,-1.84443 -25.02495,-16.29224 -26.62227,-15.37002 -0.59872,0.34567 -0.97303,4.62136 -1.12291,9.881 h -18.99041 c -0.76088,0 -1.37389,0.61236 -1.37389,1.37326 v 8.23152 c 0,0.76089 0.61301,1.37324 1.37389,1.37324 h 18.99041 c 0.14986,5.25966 0.52419,9.53535 1.12291,9.88102 0.05,0.0289 0.12295,0.0428 0.21713,0.0426 z" />
        </g>
      </g>
    </g>
  </g>
</svg>
