<svg width="13" height="20" viewBox="0 0 13 20" fill="none" xmlns="http://www.w3.org/2000/svg">
<path d="M12 16.1875V18C12 18.5523 11.5523 19 11 19H2C1.44772 19 1 18.5523 1 18V16.1875M12 16.1875V2C12 1.44772 11.5523 1 11 1H2C1.44771 1 1 1.44772 1 2V16.1875M12 16.1875H1" stroke="#696FFF" stroke-width="2"/>
<path d="M6.5 6.43602H5.5L6.5 5L7.5 6.43602H6.5ZM6.5 6.43602V9" stroke="#696FFF" stroke-width="2"/>
<path d="M6.5 11.564H5.5L6.5 13L7.5 11.564H6.5ZM6.5 11.564V9" stroke="#696FFF" stroke-width="2"/>
</svg>
